<?xml version="1.0" encoding="UTF-8" standalone="no"?>
<svg
   width="191"
   height="46"
   viewBox="0 0 191 46"
   version="1.1"
   id="svg960"
   sodipodi:docname="btn_google_light_normal_sign_in.svg"
   inkscape:version="1.1 (c68e22c387, 2021-05-23)"
   xmlns:inkscape="http://www.inkscape.org/namespaces/inkscape"
   xmlns:sodipodi="http://sodipodi.sourceforge.net/DTD/sodipodi-0.dtd"
   xmlns:xlink="http://www.w3.org/1999/xlink"
   xmlns="http://www.w3.org/2000/svg"
   xmlns:svg="http://www.w3.org/2000/svg"
   xmlns:rdf="http://www.w3.org/1999/02/22-rdf-syntax-ns#"
   xmlns:cc="http://creativecommons.org/ns#"
   xmlns:dc="http://purl.org/dc/elements/1.1/"
   xmlns:sketch="http://www.bohemiancoding.com/sketch/ns">
  <sodipodi:namedview
     id="namedview962"
     pagecolor="#ffffff"
     bordercolor="#111111"
     borderopacity="1"
     inkscape:pageshadow="0"
     inkscape:pageopacity="0"
     inkscape:pagecheckerboard="1"
     showgrid="false"
     inkscape:zoom="5.9267016"
     inkscape:cx="95.5"
     inkscape:cy="34.167403"
     inkscape:window-width="1920"
     inkscape:window-height="1017"
     inkscape:window-x="-8"
     inkscape:window-y="-8"
     inkscape:window-maximized="1"
     inkscape:current-layer="btn_google_light_normal" />
  <!-- Generator: Sketch 3.3.3 (12081) - http://www.bohemiancoding.com/sketch -->
  <title
     id="title908">btn_google_light_normal_ios</title>
  <desc
     id="desc910">Created with Sketch.</desc>
  <defs
     id="defs934">
    <filter
       x="-0.012972973"
       y="-0.06"
       width="1.0259459"
       height="1.145"
       filterUnits="objectBoundingBox"
       id="filter-1">
      <feOffset
         dx="0"
         dy="1"
         in="SourceAlpha"
         result="shadowOffsetOuter1"
         id="feOffset912" />
      <feGaussianBlur
         stdDeviation="0.5"
         in="shadowOffsetOuter1"
         result="shadowBlurOuter1"
         id="feGaussianBlur914" />
      <feColorMatrix
         values="0 0 0 0 0   0 0 0 0 0   0 0 0 0 0  0 0 0 0.168 0"
         in="shadowBlurOuter1"
         type="matrix"
         result="shadowMatrixOuter1"
         id="feColorMatrix916" />
      <feOffset
         dx="0"
         dy="0"
         in="SourceAlpha"
         result="shadowOffsetOuter2"
         id="feOffset918" />
      <feGaussianBlur
         stdDeviation="0.5"
         in="shadowOffsetOuter2"
         result="shadowBlurOuter2"
         id="feGaussianBlur920" />
      <feColorMatrix
         values="0 0 0 0 0   0 0 0 0 0   0 0 0 0 0  0 0 0 0.084 0"
         in="shadowBlurOuter2"
         type="matrix"
         result="shadowMatrixOuter2"
         id="feColorMatrix922" />
      <feMerge
         id="feMerge930">
        <feMergeNode
           in="shadowMatrixOuter1"
           id="feMergeNode924" />
        <feMergeNode
           in="shadowMatrixOuter2"
           id="feMergeNode926" />
        <feMergeNode
           in="SourceGraphic"
           id="feMergeNode928" />
      </feMerge>
    </filter>
    <rect
       id="path-2"
       x="0"
       y="0"
       width="40"
       height="40"
       rx="2" />
  </defs>
  <g
     id="Google-Button"
     stroke="none"
     stroke-width="1"
     fill="none"
     fill-rule="evenodd"
     sketch:type="MSPage">
    <g
       id="9-PATCH"
       sketch:type="MSArtboardGroup"
       transform="translate(-608,-160)" />
    <g
       id="btn_google_light_normal"
       sketch:type="MSArtboardGroup"
       transform="translate(-1,-1)">
      <g
         id="button"
         sketch:type="MSLayerGroup"
         transform="translate(4,4)"
         filter="url(#filter-1)">
        <g
           id="button-bg">
          <path
             id="use937"
             style="fill:#ffffff"
             d="m 2,0 h 181 c 1.108,0 2,0.892 2,2 v 36 c 0,1.108 -0.892,2 -2,2 H 2 C 0.892,40 0,39.108 0,38 V 2 C 0,0.892 0.892,0 2,0 Z"
             sodipodi:nodetypes="sssssssss" />
          <use
             fill="none"
             xlink:href="#path-2"
             id="use939"
             x="0"
             y="0"
             width="100%"
             height="100%" />
          <use
             fill="none"
             xlink:href="#path-2"
             id="use941"
             x="0"
             y="0"
             width="100%"
             height="100%" />
          <use
             fill="none"
             xlink:href="#path-2"
             id="use943"
             x="0"
             y="0"
             width="100%"
             height="100%" />
        </g>
      </g>
      <g
         id="logo_googleg_48dp"
         sketch:type="MSLayerGroup"
         transform="translate(15,15)">
        <path
           d="m 17.64,9.2045455 c 0,-0.6381819 -0.05727,-1.2518182 -0.163636,-1.8409091 H 9 V 10.845 h 4.843636 C 13.635,11.97 13.000909,12.923182 12.047727,13.561364 v 2.258182 h 2.908637 C 16.658182,14.252727 17.64,11.945455 17.64,9.2045455 Z"
           id="Shape"
           fill="#4285f4"
           sketch:type="MSShapeGroup" />
        <path
           d="m 9,18 c 2.43,0 4.467273,-0.805909 5.956364,-2.180454 L 12.047727,13.561364 C 11.241818,14.101364 10.210909,14.420455 9,14.420455 6.6559091,14.420455 4.6718182,12.837273 3.9640909,10.71 H 0.95727273 v 2.331818 C 2.4381818,15.983182 5.4818182,18 9,18 Z"
           id="path948"
           fill="#34a853"
           sketch:type="MSShapeGroup" />
        <path
           d="M 3.9640909,10.71 C 3.7840909,10.17 3.6818182,9.5931818 3.6818182,9 c 0,-0.5931818 0.1022727,-1.17 0.2822727,-1.71 V 4.9581818 H 0.95727273 C 0.34772727,6.1731818 0,7.5477273 0,9 c 0,1.452273 0.34772727,2.826818 0.95727273,4.041818 z"
           id="path950"
           fill="#fbbc05"
           sketch:type="MSShapeGroup" />
        <path
           d="m 9,3.5795455 c 1.321364,0 2.507727,0.4540909 3.440455,1.3459091 L 15.021818,2.3440909 C 13.463182,0.89181818 11.425909,0 9,0 5.4818182,0 2.4381818,2.0168182 0.95727273,4.9581818 L 3.9640909,7.29 C 4.6718182,5.1627273 6.6559091,3.5795455 9,3.5795455 Z"
           id="path952"
           fill="#ea4335"
           sketch:type="MSShapeGroup" />
        <path
           d="M 0,0 H 18 V 18 H 0 Z"
           id="path954"
           sketch:type="MSShapeGroup" />
      </g>
      <g
         id="handles_square"
         sketch:type="MSLayerGroup" />
      <g
         aria-label="Sign in with Google"
         id="text10180"
         style="font-weight:500;font-size:14px;line-height:1.25;font-family:Roboto;-inkscape-font-specification:'Roboto Medium';opacity:0.54;fill:#000000">
        <path
           d="m 62.708008,25.230469 q 0,-0.65625 -0.464844,-1.011719 -0.458008,-0.355469 -1.661133,-0.717773 -1.203125,-0.362305 -1.914062,-0.806641 -1.360352,-0.854492 -1.360352,-2.228516 0,-1.203125 0.977539,-1.982422 0.984375,-0.779296 2.549805,-0.779296 1.039062,0 1.852539,0.382812 0.813477,0.382813 1.27832,1.09375 0.464844,0.704102 0.464844,1.56543 h -1.722656 q 0,-0.779297 -0.492188,-1.216797 -0.485351,-0.444336 -1.394531,-0.444336 -0.847656,0 -1.319336,0.362305 -0.464844,0.362304 -0.464844,1.011718 0,0.546875 0.50586,0.916016 0.505859,0.362305 1.667968,0.710937 1.16211,0.341797 1.866211,0.786133 0.704102,0.4375 1.032227,1.011719 0.328125,0.567383 0.328125,1.333008 0,1.24414 -0.957031,1.982422 -0.950196,0.731445 -2.583985,0.731445 -1.080078,0 -1.989257,-0.396484 Q 58.004883,27.130859 57.499023,26.426758 57,25.722656 57,24.786133 h 1.729492 q 0,0.847656 0.560547,1.3125 0.560547,0.464844 1.606445,0.464844 0.902344,0 1.353516,-0.362305 0.458008,-0.369141 0.458008,-0.970703 z"
           id="path38" />
        <path
           d="m 67.561523,27.793945 h -1.661132 v -7.396484 h 1.661132 z m -1.763671,-9.317383 q 0,-0.382812 0.239257,-0.635742 0.246094,-0.252929 0.697266,-0.252929 0.451172,0 0.697266,0.252929 0.246093,0.25293 0.246093,0.635742 0,0.375977 -0.246093,0.628907 -0.246094,0.246093 -0.697266,0.246093 -0.451172,0 -0.697266,-0.246093 -0.239257,-0.25293 -0.239257,-0.628907 z"
           id="path40" />
        <path
           d="m 69.079102,24.041016 q 0,-1.722657 0.80664,-2.748047 0.813477,-1.032227 2.15332,-1.032227 1.264649,0 1.989258,0.881836 l 0.0752,-0.745117 h 1.49707 v 7.170898 q 0,1.456055 -0.90918,2.296875 -0.902344,0.840821 -2.440429,0.840821 -0.813477,0 -1.592774,-0.341797 -0.772461,-0.334961 -1.175781,-0.881836 l 0.786133,-0.998047 q 0.765625,0.90918 1.886718,0.90918 0.827149,0 1.305664,-0.451172 0.478516,-0.444336 0.478516,-1.3125 v -0.499024 q -0.717773,0.799805 -1.914062,0.799805 -1.298829,0 -2.125977,-1.032227 -0.820312,-1.032226 -0.820312,-2.857421 z m 1.654296,0.143554 q 0,1.114258 0.451172,1.756836 0.458008,0.635742 1.264649,0.635742 1.004883,0 1.490234,-0.861328 v -3.253906 q -0.47168,-0.84082 -1.476562,-0.84082 -0.820313,0 -1.278321,0.649414 -0.451172,0.649414 -0.451172,1.914062 z"
           id="path42" />
        <path
           d="m 78.847656,20.397461 0.04785,0.854492 q 0.820312,-0.991211 2.15332,-0.991211 2.310547,0 2.351563,2.645508 v 4.887695 h -1.661133 v -4.791992 q 0,-0.704101 -0.307617,-1.039062 -0.300782,-0.341797 -0.991211,-0.341797 -1.004883,0 -1.497071,0.909179 v 5.263672 h -1.661132 v -7.396484 z"
           id="path44" />
        <path
           d="M 90.345703,27.793945 H 88.68457 v -7.396484 h 1.661133 z m -1.763672,-9.317383 q 0,-0.382812 0.239258,-0.635742 0.246094,-0.252929 0.697266,-0.252929 0.451172,0 0.697265,0.252929 0.246094,0.25293 0.246094,0.635742 0,0.375977 -0.246094,0.628907 -0.246093,0.246093 -0.697265,0.246093 -0.451172,0 -0.697266,-0.246093 -0.239258,-0.25293 -0.239258,-0.628907 z"
           id="path46" />
        <path
           d="m 93.695312,20.397461 0.04785,0.854492 q 0.820313,-0.991211 2.15332,-0.991211 2.310547,0 2.351563,2.645508 v 4.887695 h -1.661133 v -4.791992 q 0,-0.704101 -0.307617,-1.039062 -0.300781,-0.341797 -0.991211,-0.341797 -1.004883,0 -1.49707,0.909179 v 5.263672 h -1.661133 v -7.396484 z"
           id="path48" />
        <path
           d="m 109.92383,25.503906 1.17578,-5.106445 h 1.62012 l -2.0166,7.396484 h -1.36719 l -1.58594,-5.079101 -1.55859,5.079101 h -1.36719 l -2.02344,-7.396484 h 1.62012 l 1.19629,5.051758 1.51758,-5.051758 h 1.25097 z"
           id="path50" />
        <path
           d="m 115.59766,27.793945 h -1.66114 v -7.396484 h 1.66114 z m -1.76368,-9.317383 q 0,-0.382812 0.23926,-0.635742 0.2461,-0.252929 0.69727,-0.252929 0.45117,0 0.69726,0.252929 0.2461,0.25293 0.2461,0.635742 0,0.375977 -0.2461,0.628907 -0.24609,0.246093 -0.69726,0.246093 -0.45117,0 -0.69727,-0.246093 -0.23926,-0.25293 -0.23926,-0.628907 z"
           id="path52" />
        <path
           d="m 119.4873,18.599609 v 1.797852 h 1.30567 v 1.230469 h -1.30567 v 4.128906 q 0,0.423828 0.16407,0.615234 0.1709,0.184571 0.60156,0.184571 0.28711,0 0.58105,-0.06836 v 1.285156 q -0.56738,0.157227 -1.09375,0.157227 -1.91406,0 -1.91406,-2.112305 V 21.62793 h -1.21679 v -1.230469 h 1.21679 v -1.797852 z"
           id="path54" />
        <path
           d="m 123.69824,21.204102 q 0.81348,-0.94336 2.05762,-0.94336 2.36523,0 2.39941,2.700195 v 4.833008 h -1.66113 v -4.771484 q 0,-0.765625 -0.33496,-1.080078 -0.32813,-0.321289 -0.9707,-0.321289 -0.99805,0 -1.49024,0.888672 v 5.284179 h -1.66113 v -10.5 h 1.66113 z"
           id="path56" />
        <path
           d="m 141.10937,26.501953 q -0.54003,0.704102 -1.49707,1.066406 -0.95703,0.362305 -2.17382,0.362305 -1.25098,0 -2.21485,-0.567383 -0.96386,-0.567383 -1.49023,-1.620117 -0.51953,-1.05957 -0.54004,-2.467773 v -0.779297 q 0,-2.25586 1.08008,-3.520508 1.08008,-1.271484 3.01465,-1.271484 1.66113,0 2.63867,0.820312 0.97754,0.820313 1.17578,2.365234 h -1.69531 q -0.28711,-1.797851 -2.08496,-1.797851 -1.16211,0 -1.77051,0.84082 -0.60156,0.833985 -0.62207,2.454102 v 0.765625 q 0,1.613281 0.67676,2.508789 0.68359,0.888672 1.89355,0.888672 1.32617,0 1.88672,-0.601563 V 24 h -2.05078 v -1.3125 h 3.77343 z"
           id="path58" />
        <path
           d="m 142.53809,24.027344 q 0,-1.086914 0.43066,-1.955078 0.43066,-0.875 1.20996,-1.339844 0.7793,-0.47168 1.79102,-0.47168 1.49707,0 2.42675,0.963867 0.93653,0.963868 1.01172,2.556641 l 0.007,0.389648 q 0,1.09375 -0.42383,1.955079 -0.41699,0.861328 -1.20312,1.333007 -0.7793,0.47168 -1.80469,0.47168 -1.56543,0 -2.50879,-1.039062 -0.93652,-1.045899 -0.93652,-2.782227 z m 1.66113,0.143554 q 0,1.141602 0.47168,1.791016 0.47168,0.642578 1.3125,0.642578 0.84082,0 1.30566,-0.65625 0.47168,-0.65625 0.47168,-1.920898 0,-1.121094 -0.48535,-1.777344 -0.47852,-0.65625 -1.30566,-0.65625 -0.81348,0 -1.292,0.649414 -0.47851,0.642578 -0.47851,1.927734 z"
           id="path60" />
        <path
           d="m 150.50879,24.027344 q 0,-1.086914 0.43066,-1.955078 0.43067,-0.875 1.20996,-1.339844 0.7793,-0.47168 1.79102,-0.47168 1.49707,0 2.42676,0.963867 0.93652,0.963868 1.01172,2.556641 l 0.007,0.389648 q 0,1.09375 -0.42383,1.955079 -0.41699,0.861328 -1.20312,1.333007 -0.7793,0.47168 -1.80469,0.47168 -1.56543,0 -2.50879,-1.039062 -0.93652,-1.045899 -0.93652,-2.782227 z m 1.66113,0.143554 q 0,1.141602 0.47168,1.791016 0.47168,0.642578 1.3125,0.642578 0.84082,0 1.30567,-0.65625 0.47168,-0.65625 0.47168,-1.920898 0,-1.121094 -0.48536,-1.777344 -0.47851,-0.65625 -1.30566,-0.65625 -0.81348,0 -1.29199,0.649414 -0.47852,0.642578 -0.47852,1.927734 z"
           id="path62" />
        <path
           d="m 158.5,24.041016 q 0,-1.722657 0.80664,-2.748047 0.81348,-1.032227 2.15332,-1.032227 1.26465,0 1.98926,0.881836 l 0.0752,-0.745117 h 1.49707 v 7.170898 q 0,1.456055 -0.90918,2.296875 -0.90234,0.840821 -2.44043,0.840821 -0.81347,0 -1.59277,-0.341797 -0.77246,-0.334961 -1.17578,-0.881836 l 0.78613,-0.998047 q 0.76563,0.90918 1.88672,0.90918 0.82715,0 1.30567,-0.451172 0.47851,-0.444336 0.47851,-1.3125 v -0.499024 q -0.71777,0.799805 -1.91406,0.799805 -1.29883,0 -2.12598,-1.032227 Q 158.5,25.866211 158.5,24.041016 Z m 1.6543,0.143554 q 0,1.114258 0.45117,1.756836 0.45801,0.635742 1.26465,0.635742 1.00488,0 1.49023,-0.861328 v -3.253906 q -0.47168,-0.84082 -1.47656,-0.84082 -0.82031,0 -1.27832,0.649414 -0.45117,0.649414 -0.45117,1.914062 z"
           id="path64" />
        <path
           d="m 168.49414,27.793945 h -1.66113 v -10.5 h 1.66113 z"
           id="path66" />
        <path
           d="m 173.55957,27.930664 q -1.5791,0 -2.56348,-0.991211 -0.97754,-0.998047 -0.97754,-2.652344 v -0.205078 q 0,-1.107422 0.42383,-1.975586 0.43067,-0.875 1.20313,-1.360351 0.77246,-0.485352 1.72265,-0.485352 1.51075,0 2.33106,0.963867 0.82715,0.963868 0.82715,2.727539 v 0.669922 h -4.83301 q 0.0752,0.916016 0.6084,1.449219 0.54004,0.533203 1.35351,0.533203 1.1416,0 1.85938,-0.922851 l 0.89551,0.854492 q -0.44434,0.663086 -1.18946,1.032226 -0.73828,0.362305 -1.66113,0.362305 z m -0.19824,-6.336914 q -0.6836,0 -1.10742,0.478516 -0.417,0.478515 -0.53321,1.333007 h 3.16504 v -0.123046 q -0.0547,-0.833985 -0.44433,-1.257813 -0.38965,-0.430664 -1.08008,-0.430664 z"
           id="path68" />
      </g>
    </g>
  </g>
  <metadata
     id="metadata1044">
    <rdf:RDF>
      <cc:Work
         rdf:about="">
        <dc:title>btn_google_light_normal_ios</dc:title>
      </cc:Work>
    </rdf:RDF>
  </metadata>
</svg>
