<?xml version="1.0" encoding="UTF-8" standalone="no"?>
<svg
   viewBox="0 0 849.28022 287.29727"
   height="287.29727"
   width="849.28021"
   xml:space="preserve"
   id="svg2"
   version="1.1"
   sodipodi:docname="catma-tailright-final-cmyk_rotated.svg"
   inkscape:version="1.1 (c68e22c387, 2021-05-23)"
   xmlns:inkscape="http://www.inkscape.org/namespaces/inkscape"
   xmlns:sodipodi="http://sodipodi.sourceforge.net/DTD/sodipodi-0.dtd"
   xmlns="http://www.w3.org/2000/svg"
   xmlns:svg="http://www.w3.org/2000/svg"
   xmlns:rdf="http://www.w3.org/1999/02/22-rdf-syntax-ns#"
   xmlns:cc="http://creativecommons.org/ns#"
   xmlns:dc="http://purl.org/dc/elements/1.1/"><sodipodi:namedview
     id="namedview10"
     pagecolor="#ffffff"
     bordercolor="#111111"
     borderopacity="1"
     inkscape:pageshadow="0"
     inkscape:pageopacity="0"
     inkscape:pagecheckerboard="1"
     showgrid="false"
     lock-margins="true"
     fit-margin-top="25"
     fit-margin-left="25"
     fit-margin-right="25"
     fit-margin-bottom="25"
     inkscape:zoom="0.96894408"
     inkscape:cx="434.4936"
     inkscape:cy="79.983976"
     inkscape:window-width="1920"
     inkscape:window-height="1017"
     inkscape:window-x="-8"
     inkscape:window-y="-8"
     inkscape:window-maximized="1"
     inkscape:current-layer="svg2" /><metadata
     id="metadata8"><rdf:RDF><cc:Work
         rdf:about=""><dc:format>image/svg+xml</dc:format><dc:type
           rdf:resource="http://purl.org/dc/dcmitype/StillImage" /></cc:Work></rdf:RDF></metadata><defs
     id="defs6"><clipPath
       id="clipPath14"
       clipPathUnits="userSpaceOnUse"><path
         id="path12"
         d="M 0,0 H 644 V 218 H 0 Z" /></clipPath></defs><g
     clip-path="url(#clipPath14)"
     transform="matrix(1.3333333,0,0,-1.3333333,-4.6930027,288.98284)"
     id="g10"><g
       transform="scale(0.1)"
       id="g16"><path
         id="path18"
         style="fill:#162344;fill-opacity:1;fill-rule:nonzero;stroke:none"
         d="m 1368.49,1979.82 c -14.12,-0.61 -27.65,-6.45 -37.74,-16.96 -92.51,-94.84 -186.18,-188.52 -280.27,-281.78 -22.54,-22.24 -22.68,-58.94 -0.43,-81.48 22.24,-22.55 58.27,-22.36 80.82,-0.12 61.16,58.59 181.06,181.09 181.06,181.09 0,0 -2.6,-178.33 -3.68,-256.66 -0.42,-31.67 24.4,-57.78 56.07,-58.21 31.67,-0.42 58.06,25.1 58.48,56.78 2.22,135.65 4.54,280.85 6.39,399.22 -0.05,22.89 -13.81,44.29 -35.23,53.41 -8.29,3.54 -16.99,5.07 -25.47,4.71 z M 278.848,1780.87 c -13.965,-0.48 -27.692,-5.9 -38.2,-15.98 -17.355,-16.64 -22.668,-41.5 -13.554,-62.95 50.879,-122.33 100.203,-245.27 149.004,-368.44 11.601,-29.48 45.3,-44.01 74.773,-32.41 29.473,11.61 43.457,44.79 31.852,74.25 -29.844,79.27 -95.422,237.65 -95.422,237.65 0,0 162.988,-72.45 234.59,-104.2 28.957,-12.84 62.718,-0.26 75.55,28.7 12.832,28.96 -0.273,63.24 -29.23,76.07 -123.856,55.35 -256.469,114.55 -364.609,162.74 -7.899,3.37 -16.356,4.86 -24.735,4.57 h -0.023 z M 986.09,1482.09 c -4.422,-0.04 -8.84,-0.11 -13.258,-0.25 C 862.82,1478.35 753.34,1440.65 661.617,1367.77 451.973,1201.18 400.41,902.621 542.098,675.379 683.766,448.16 974.559,362.988 1216.41,477.941 c 70.96,32.098 20.53,138.289 -49.19,103.571 -190.068,-90.313 -416.458,-24.024 -527.806,154.539 -111.316,178.57 -71.18,411.009 93.555,541.909 164.75,130.91 400.261,117.5 549.041,-31.28 54.05,-55.58 136.66,27.01 81.1,81.07 -103.18,103.18 -239.93,155.21 -376.977,154.32 z m 2063.22,-10.7 c -6.03,0.16 -12.2,-0.64 -18.32,-2.49 -23.98,-7.49 -40.46,-29.97 -40.46,-54.7 l 0.75,-917.141 c 0,-31.469 25.49,-56.95 56.96,-56.95 31.47,0 56.95,25.481 56.95,56.95 v 728.331 l 278.72,-416.64 c 22.48,-33.719 71.94,-33.719 94.42,0 l 278.75,416.64 V 497.059 c 0,-31.469 25.48,-56.95 56.95,-56.95 31.47,0 56.95,25.481 56.95,56.95 l 0.76,917.141 c 0,24.73 -16.53,47.21 -40.5,54.7 -24.73,7.49 -50.18,-2.23 -64.42,-23.21 L 3430.89,942.898 3095.13,1445.69 c -10.66,15.7 -27.6,25.1 -45.82,25.7 z m -1278.35,-0.23 c -23.98,0 -44.97,-14.26 -53.21,-35.98 L 1355.81,518.031 c -11.24,-29.222 2.99,-62.961 32.22,-74.211 29.22,-11.23 62.96,3.02 74.2,32.25 l 89.93,227.789 h 446.57 l 93.66,-228.55 c 11.99,-29.219 44.96,-43.469 74.18,-31.489 29.23,11.989 43.46,45.719 31.47,74.942 l -374.21,917.118 c -9,20.98 -29.97,35.23 -53.19,35.23 z m 324.47,0 c -31.46,-0.02 -56.91,-25.49 -56.91,-56.96 0,-31.47 25.46,-57.68 56.93,-57.68 H 2386.2 V 497.059 c 0,-31.469 25.46,-57.707 56.93,-57.707 31.47,0 56.95,26.238 56.95,57.707 v 859.461 h 290.72 c 31.48,0 56.96,26.21 56.96,57.68 0,31.48 -25.49,56.96 -56.96,56.96 h -695.35 z m 2316.27,0 c -23.98,0 -44.97,-14.26 -53.21,-35.98 L 3996.57,518.031 c -11.24,-29.222 3,-62.961 32.22,-74.211 29.23,-11.23 62.94,3.02 74.18,32.25 l 89.93,227.789 h 446.57 l 72.29,-176.359 0.2,0.09 c 10.11,-24.512 21.93,-48.238 35.55,-70.918 30.36,-50.524 69.15,-95.973 115.03,-134.172 45.87,-38.191 98.88,-69.102 157.47,-90.418 117.18,-42.652 241.66,-41.473 353.13,-3.113 l 0.09,0.07 0.09,0.031 c 72.79,26.129 150.5,88.192 226.63,137.731 39.53,23.738 82.97,40.91 128.63,50.418 45.65,9.519 93.47,11.422 141.9,4.609 96.87,-13.609 182.06,-60.019 245.02,-127.476 52.38,-58.442 139.03,22.398 84.36,78.699 -80.44,86.187 -189.82,145.679 -313.32,163.027 -61.74,8.684 -123.07,6.301 -181.51,-5.887 -64.03,-13.769 -140.88,-46.25 -201.42,-88.8 l -0.98,-0.692 -0.91,-0.75 C 5441.96,393.031 5393.31,358.211 5335.47,338.09 l -0.03,-0.02 c -87.21,-29.968 -184.13,-30.961 -275.98,2.461 -45.95,16.719 -87.27,40.879 -123.1,70.707 -35.84,29.84 -66.18,65.371 -89.93,104.903 -10.28,17.121 -19.88,35.019 -27.79,53.48 h 0.02 l -353.61,866.169 c -8.99,20.98 -29.98,35.21 -53.21,35.21 l -0.13,0.16 z M 1771.64,1260.59 1952.2,818.5 h -355.16 z m 2640.84,0 180.58,-442.09 h -355.19 z" /></g></g></svg>
