<?xml version="1.0" encoding="UTF-8" standalone="no"?>
<svg
   viewBox="0 0 1116 648"
   height="648"
   width="1116"
   xml:space="preserve"
   id="svg2"
   version="1.1"
   sodipodi:docname="catma-regular-final-cmyk_rotated.svg"
   inkscape:version="1.1 (c68e22c387, 2021-05-23)"
   xmlns:inkscape="http://www.inkscape.org/namespaces/inkscape"
   xmlns:sodipodi="http://sodipodi.sourceforge.net/DTD/sodipodi-0.dtd"
   xmlns="http://www.w3.org/2000/svg"
   xmlns:svg="http://www.w3.org/2000/svg"
   xmlns:rdf="http://www.w3.org/1999/02/22-rdf-syntax-ns#"
   xmlns:cc="http://creativecommons.org/ns#"
   xmlns:dc="http://purl.org/dc/elements/1.1/"><sodipodi:namedview
     id="namedview16"
     pagecolor="#ffffff"
     bordercolor="#111111"
     borderopacity="1"
     inkscape:pageshadow="0"
     inkscape:pageopacity="0"
     inkscape:pagecheckerboard="1"
     showgrid="false"
     fit-margin-top="0"
     fit-margin-left="0"
     fit-margin-right="0"
     fit-margin-bottom="0"
     inkscape:zoom="0.74551971"
     inkscape:cx="556.65865"
     inkscape:cy="345.39663"
     inkscape:window-width="1920"
     inkscape:window-height="1017"
     inkscape:window-x="-8"
     inkscape:window-y="-8"
     inkscape:window-maximized="1"
     inkscape:current-layer="svg2" /><metadata
     id="metadata8"><rdf:RDF><cc:Work
         rdf:about=""><dc:format>image/svg+xml</dc:format><dc:type
           rdf:resource="http://purl.org/dc/dcmitype/StillImage" /></cc:Work></rdf:RDF></metadata><defs
     id="defs6"><clipPath
       id="clipPath14"
       clipPathUnits="userSpaceOnUse"><path
         id="path12"
         d="M 0,0 H 837 V 486 H 0 Z" /></clipPath><clipPath
       id="clipPath26"
       clipPathUnits="userSpaceOnUse"><path
         style="clip-rule:evenodd"
         id="path24"
         d="M 33.1836,4797.6 H 8327.46 V 151.742 H 33.1836 Z" /></clipPath></defs><g
     clip-path="url(#clipPath14)"
     transform="matrix(1.3333333,0,0,-1.3333333,0,647.99998)"
     id="g10"><g
       transform="scale(0.1)"
       id="g16"><path
         id="path18"
         style="fill:#ffffff;fill-opacity:1;fill-rule:evenodd;stroke:none"
         d="M 0,4860 H 8370 V 0 H 0 v 4860" /><g
         id="g20"><g
           clip-path="url(#clipPath26)"
           id="g22"><path
             id="path28"
             style="fill:#162446;fill-opacity:1;fill-rule:nonzero;stroke:none"
             d="m 2081.79,4796.98 c -25.14,-1.07 -49.24,-11.38 -67.2,-29.88 -164.73,-167.06 -331.5,-332.06 -499.05,-496.32 -40.15,-39.19 -40.38,-103.82 -0.77,-143.52 39.61,-39.71 103.75,-39.4 143.88,-0.22 108.91,103.19 322.4,319 322.4,319 0,0 -4.62,-314.14 -6.53,-452.11 -0.75,-55.78 43.45,-101.75 99.84,-102.5 56.39,-0.75 103.36,44.21 104.12,99.99 3.95,238.94 8.11,494.71 11.4,703.2 -0.09,40.33 -24.59,77.99 -62.74,94.06 -14.76,6.23 -30.25,8.92 -45.35,8.28 z M 141.559,4446.55 C 116.699,4445.71 92.2344,4436.14 73.5273,4418.4 42.625,4389.09 33.1836,4345.28 49.4102,4307.5 140.004,4092.04 227.82,3875.49 314.715,3658.53 c 20.656,-51.91 80.672,-77.5 133.148,-57.06 52.477,20.43 77.395,78.9 56.735,130.8 -53.145,139.62 -169.922,418.58 -169.922,418.58 0,0 290.207,-127.61 417.703,-183.55 51.559,-22.6 111.687,-0.44 134.535,50.56 22.848,51.01 -0.5,111.39 -52.062,133.99 -220.539,97.48 -456.676,201.78 -649.227,286.67 -14.066,5.93 -29.125,8.55 -44.039,8.03 z M 1400.88,3920.29 c -7.88,-0.06 -15.75,-0.19 -23.61,-0.44 C 1181.38,3913.7 986.422,3847.28 823.098,3718.9 449.809,3425.46 358.031,2899.57 610.313,2499.31 862.57,2099.08 1380.34,1949.07 1810.98,2151.54 c 33.54,15.12 56.23,46.95 59.38,83.27 3.14,36.33 -13.75,71.52 -44.2,92.06 -30.44,20.55 -69.71,23.27 -102.77,7.11 -338.43,-159.07 -741.523,-42.32 -939.788,272.2 -198.211,314.53 -126.75,723.99 166.578,954.55 293.36,230.58 712.68,206.94 977.61,-55.13 25.64,-26.2 63.59,-36.69 99.25,-27.45 35.66,9.25 63.51,36.8 72.86,72.08 9.37,35.27 -1.24,72.8 -27.72,98.17 -183.73,181.74 -427.2,273.4 -671.23,271.82 z M 5075,3901.43 c -10.84,0.33 -21.96,-1.09 -32.96,-4.39 -42.7,-13.2 -72.06,-52.79 -72.06,-96.34 l 1.34,-1615.46 c 0,-55.43 45.38,-100.31 101.41,-100.31 56.04,0 101.4,44.88 101.4,100.31 V 3468.1 l 496.32,-733.84 c 40.03,-59.4 128.12,-59.4 168.14,0 L 6334.9,3468.1 V 2185.24 c 0,-55.43 45.37,-100.31 101.41,-100.31 56.03,0 101.4,44.88 101.4,100.31 l 1.34,1615.46 c 0,43.55 -29.37,83.14 -72.08,96.34 -44.02,13.19 -89.38,-3.92 -114.72,-40.87 l -598.14,-885.63 -597.86,885.63 c -19.03,27.71 -49.29,44.27 -81.82,45.26 z m -2276.6,-0.42 c -42.7,0 -80.06,-25.08 -94.75,-63.35 L 2059.2,2222.15 c -20,-51.47 5.35,-110.87 57.39,-130.67 52.04,-19.8 112.07,5.29 132.09,56.76 l 160.12,401.25 h 795.16 l 166.79,-402.56 c 21.34,-51.47 80.07,-76.57 132.11,-55.45 52.03,21.12 77.35,80.52 56.02,131.99 l -666.33,1615.42 c -16.01,36.96 -53.35,62.04 -94.71,62.04 z m 577.82,0 c -56.04,0 -101.41,-44.88 -101.41,-100.31 0,-55.44 45.39,-101.61 101.41,-101.61 H 3893.9 V 2185.21 c 0,-55.43 45.37,-101.62 101.39,-101.62 56.05,0 101.39,46.19 101.39,101.62 v 1513.88 h 517.68 c 56.04,0 101.39,46.17 101.39,101.61 0,55.43 -45.35,100.31 -101.39,100.31 H 3376.18 Z m 4124.32,0 c -42.7,0 -80.06,-25.08 -94.74,-63.35 L 6761.36,2222.15 c -20.02,-51.47 5.32,-110.87 57.36,-130.67 52.03,-19.8 112.09,5.29 132.12,56.76 l 160.11,401.25 h 795.16 l 163.36,-394.28 c 0.76,-2.68 1.64,-5.33 2.64,-7.93 14.09,-38.26 24.91,-77.58 32.37,-117.52 14.93,-79.87 16.36,-162.2 3.72,-243.37 -12.64,-81.17 -39.32,-161.21 -80.91,-236.87 -83.14,-151.24 -213.61,-262.97 -365.32,-325.14 0,-0.01 -0.08,-0.01 -0.08,-0.02 -100.89,-40.9 -206.85,-51.66 -341.91,-59.43 l -2.1,-0.11 -2.11,-0.21 c -26.13,-2.58 -52.14,-6.23 -77.93,-10.94 -103.19,-18.86 -203.2,-54.72 -295.54,-106.8 -92.34,-52.081 -177,-120.421 -249.16,-203.89 -144.32,-166.949 -220.12,-373.039 -225.82,-580.628 -1.42,-36.551 17.13,-71.032 48.56,-90.293 31.44,-19.25 70.91,-20.309 103.35,-2.77 32.45,17.543 52.86,50.973 53.45,87.543 4.46,162.477 63.39,323.098 176.59,454.047 56.61,65.473 122.64,118.75 194.78,159.43 72.15,40.679 150.36,68.742 231.11,83.5 20.02,3.66 40.22,6.48 60.48,8.492 137.83,8 269.81,19.461 404.29,73.999 l 0.16,0.08 0.14,0.06 c 193.97,79.38 361.48,223.01 467.56,415.98 53.03,96.48 87.3,199.08 103.48,303 16.18,103.92 14.32,209.16 -4.73,311.25 -9.54,51.03 -23.38,101.29 -41.4,150.2 -2.6,6.83 -5.93,13.36 -9.93,19.47 l -659.69,1602.37 c -16.02,36.96 -53.37,62.04 -94.73,62.04 z m -4700.93,-370.88 321.52,-778.7 h -632.4 z m 4702.32,0 321.52,-778.7 h -632.41 l 310.89,778.7" /><path
             id="path30"
             style="fill:#162446;fill-opacity:1;fill-rule:nonzero;stroke:none"
             d="m 5167.57,277.211 c 0,63.34 -35,83.48 -73.3,99.75 l -79,33.449 c -33.52,14.211 -46.09,22.789 -46.09,58.309 0,58.32 49.07,67.203 78.41,67.203 24.82,0 61.63,-3.551 84.98,-11.25 11.66,-3.852 25.13,2.668 29.02,14.508 3.89,11.84 -2.68,24.57 -14.36,28.422 -28.12,9.168 -70.32,13.32 -99.64,13.32 -75.41,0 -123.89,-44.113 -123.89,-112.203 0,-63.34 34.71,-83.168 73.61,-99.75 l 78.71,-33.449 c 33.2,-14.211 46.07,-22.79 46.07,-58.309 0,-58.32 -49.07,-67.199 -78.39,-67.199 -24.84,0 -61.95,3.547 -85,11.25 -11.97,3.847 -25.13,-2.672 -29.02,-14.512 -3.89,-11.84 2.39,-24.57 14.36,-28.41 27.84,-9.18 70.32,-13.328 99.66,-13.328 75.41,0 123.87,44.109 123.87,112.199 z m -383,276.777 c 0,12.442 -10.18,22.5 -22.75,22.5 -12.55,0 -22.73,-10.058 -22.73,-22.5 V 191.66 c 0,-12.43 10.18,-22.789 22.73,-22.789 12.57,0 22.75,10.359 22.75,22.789 z M 4600.84,277.211 c 0,63.34 -35,83.48 -73.3,99.75 l -79,33.449 c -33.52,14.211 -46.09,22.789 -46.09,58.309 0,58.32 49.07,67.203 78.41,67.203 24.82,0 61.64,-3.551 84.98,-11.25 11.66,-3.852 25.13,2.668 29.02,14.508 3.89,11.84 -2.68,24.57 -14.36,28.422 -28.12,9.168 -70.32,13.32 -99.64,13.32 -75.41,0 -123.9,-44.113 -123.9,-112.203 0,-63.34 34.72,-83.168 73.63,-99.75 l 78.7,-33.449 c 33.21,-14.211 46.07,-22.79 46.07,-58.309 0,-58.32 -49.07,-67.199 -78.4,-67.199 -24.83,0 -61.94,3.547 -84.99,11.25 -11.97,3.847 -25.13,-2.672 -29.02,-14.512 -3.9,-11.84 2.39,-24.57 14.36,-28.41 27.83,-9.18 70.32,-13.328 99.65,-13.328 75.42,0 123.88,44.109 123.88,112.199 z m -336.05,263.75 c 7.18,10.359 4.48,24.269 -5.99,31.371 -10.46,7.109 -24.53,4.738 -31.71,-5.621 l -121.2,-173.172 -117.3,172.871 c -6.89,10.36 -21.25,13.031 -31.71,6.219 -10.49,-6.809 -13.48,-21.02 -6.29,-31.379 L 4082.86,346.762 V 191.648 c 0,-12.429 10.16,-22.5 22.73,-22.5 12.57,0 22.75,10.071 22.75,22.5 v 154.821 l 136.45,194.48 z M 3922.46,191.648 c 0,12.434 -10.17,22.5 -22.74,22.5 H 3750.7 V 553.68 c 0,12.429 -10.18,22.789 -22.74,22.789 -12.57,0 -22.75,-10.36 -22.75,-22.789 V 191.648 c 0,-12.437 10.18,-22.5 22.75,-22.5 h 171.76 c 12.57,0 22.74,10.063 22.74,22.5 z m -484.17,370.903 c -3.59,8.289 -11.97,13.918 -21.24,13.918 -9.58,0 -17.96,-5.629 -21.25,-14.207 L 3251.27,199.93 c -4.48,-11.551 1.19,-24.871 12.86,-29.309 11.67,-4.441 25.14,1.18 29.64,12.731 l 35.91,89.988 h 178.34 l 37.41,-90.289 c 4.78,-11.539 17.95,-17.172 29.62,-12.43 11.67,4.738 17.35,18.059 12.56,29.598 z m -90.66,-243.91 69.71,174.648 72.12,-174.648 z m -216.06,235.328 c 0,12.429 -10.17,22.5 -22.73,22.5 -12.57,0 -22.75,-10.071 -22.75,-22.5 V 260.91 l -225.93,306.379 c -5.98,8 -16.16,10.961 -25.43,8 -9.58,-3.258 -15.85,-11.551 -15.85,-21.32 V 191.941 c 0,-12.429 10.16,-22.793 22.73,-22.793 12.57,0 22.75,10.364 22.75,22.793 v 292.758 l 226.23,-306.078 c 5.68,-8 16.16,-11.25 25.43,-8.289 9.27,2.957 15.55,11.84 15.55,21.609 z m -579.61,8.582 c -3.58,8.289 -11.96,13.918 -21.25,13.918 -9.58,0 -17.94,-5.629 -21.25,-14.207 l -144.53,-362.34 c -4.48,-11.543 1.2,-24.863 12.87,-29.301 11.67,-4.441 25.13,1.18 29.63,12.731 l 35.91,89.988 h 178.34 l 37.41,-90.289 c 4.79,-11.539 17.95,-17.172 29.62,-12.43 11.67,4.738 17.36,18.059 12.58,29.598 l -149.7,362.332 z m -90.67,-243.91 69.73,174.648 72.11,-174.648 z m -440.04,57.609 c 0,147.711 -110.41,200.109 -213.66,200.109 h -84.39 c -12.56,0 -22.74,-10.058 -22.74,-22.5 V 191.531 c 0,-12.429 10.18,-22.5 22.74,-22.5 h 90.09 c 122.39,0 207.96,85.25 207.96,207.207 z m -45.78,0 c 0,-111.898 -81.38,-162.211 -162.18,-162.211 h -67.34 l 0.3,317.031 61.64,0.301 c 50.57,0.289 167.58,-15.101 167.58,-155.121 z m -436.58,177.609 c 0,12.43 -10.18,22.5 -22.75,22.5 -12.57,0 -22.74,-10.07 -22.74,-22.5 V 260.801 l -225.92,306.39 c -5.99,7.989 -16.16,10.95 -25.44,7.989 -9.58,-3.258 -15.86,-11.551 -15.86,-21.309 V 191.832 c 0,-12.434 10.17,-22.793 22.74,-22.793 12.57,0 22.74,10.359 22.74,22.793 V 484.59 l 226.23,-306.078 c 5.68,-7.992 16.16,-11.25 25.43,-8.293 9.28,2.961 15.57,11.84 15.57,21.613 z m -579.62,8.59 c -3.59,8.281 -11.969,13.91 -21.247,13.91 -9.578,0 -17.953,-5.629 -21.246,-14.211 L 772.242,199.82 c -4.488,-11.55 1.196,-24.871 12.867,-29.308 11.668,-4.442 25.137,1.187 29.625,12.726 l 35.911,89.992 h 178.345 l 37.41,-90.281 c 4.78,-11.551 17.95,-17.168 29.62,-12.437 11.67,4.738 17.36,18.058 12.57,29.597 z M 868.598,318.531 938.32,493.18 1010.43,318.531 H 868.59 Z M 6309.8,1056.3 c 0,65.72 -54.46,126.11 -122.39,126.11 h -114.3 c -12.57,0 -22.75,-10.07 -22.75,-22.5 V 797.578 c 0,-12.43 10.18,-22.496 22.75,-22.496 12.57,0 23.03,10.066 23.03,22.496 v 129.656 h 89.47 c 68.53,0 124.18,58.02 124.18,129.066 z m -45.48,0 c 0,-45.58 -36.21,-83.773 -78.69,-83.773 h -89.47 v 164.583 h 91.27 c 43.09,0 76.89,-39.96 76.89,-80.82 z m -370.44,103.61 c 0,12.43 -10.47,22.5 -23.04,22.5 -12.57,0 -22.75,-10.07 -22.75,-22.5 V 957.434 c 0,-88.508 -46.09,-141.496 -122.68,-141.496 -76.91,0 -122.39,52.988 -122.39,141.496 l -0.31,202.476 c 0,12.43 -10.17,22.5 -22.75,22.5 -12.56,0 -22.74,-10.07 -22.74,-22.5 V 957.434 c 0,-113.375 65.84,-186.493 168.19,-186.493 102.34,0 167.86,73.118 168.16,186.493 z m -609.25,-173.758 146.64,158.368 c 8.68,9.18 7.77,23.68 -1.5,31.97 -9.27,8.29 -23.64,7.69 -32.02,-1.48 L 5207.13,969.277 v 190.633 c 0,12.43 -10.18,22.49 -22.75,22.49 -12.57,0 -22.74,-10.06 -22.74,-22.49 V 797.574 c 0,-12.433 10.17,-22.492 22.74,-22.492 12.57,0 22.75,10.059 22.75,22.492 v 104.789 l 46.69,50.325 147.22,-169.907 c 8.09,-9.48 22.44,-10.371 32.01,-2.371 9.58,7.988 10.49,22.199 2.4,31.672 l -150.82,174.063 z m -350.4,-50.324 c 46.68,18.649 79.59,65.722 79.59,120.482 0,82.29 -70.91,126.11 -122.39,126.11 h -114.3 c -12.58,0 -22.75,-10.07 -22.75,-22.5 V 797.586 c 0,-12.438 10.17,-22.496 22.75,-22.496 12.57,0 22.73,10.058 22.73,22.496 v 129.656 h 84.41 L 4989,784.262 c 7.48,-10.063 21.54,-12.133 31.72,-5.032 10.17,7.399 12.57,21.61 5.08,31.676 l -91.57,124.918 z m 34.11,120.482 c 0,-43.51 -33.21,-83.775 -78.09,-83.775 h -90.39 v 164.875 l 91.57,-0.29 c 26.03,0 76.91,-24.28 76.91,-80.82 z m -480.89,112.19 c -3.59,8.29 -11.97,13.91 -21.24,13.91 -9.58,0 -17.96,-5.62 -21.25,-14.2 L 4300.43,805.875 c -4.48,-11.547 1.2,-24.863 12.86,-29.305 11.67,-4.441 25.14,1.18 29.64,12.731 l 35.91,89.984 h 178.34 L 4594.59,789 c 4.79,-11.539 17.95,-17.168 29.62,-12.43 11.67,4.739 17.35,18.055 12.58,29.602 l -149.38,362.518 z m -90.66,-243.914 69.71,174.654 72.13,-174.654 z m -215.5,235.344 c 0,9.77 -6.58,18.65 -16.16,21.61 -9.86,2.96 -20.04,-0.88 -25.73,-9.17 L 4005.34,973.742 3871.29,1172.37 c -5.7,8.29 -15.86,12.13 -25.75,9.17 -9.57,-2.96 -16.16,-11.84 -16.16,-21.61 l 0.3,-362.328 c 0,-12.43 10.18,-22.5 22.75,-22.5 12.57,0 22.75,10.07 22.75,22.5 v 287.738 l 111.31,-164.586 c 8.97,-13.32 28.72,-13.32 37.71,0 l 111.32,164.586 V 797.602 c 0,-12.43 10.16,-22.5 22.73,-22.5 12.57,0 22.75,10.07 22.75,22.5 z M 3466.45,797.602 c 0,12.433 -10.16,22.5 -22.74,22.5 H 3294.7 v 339.528 c 0,12.44 -10.18,22.8 -22.75,22.8 -12.57,0 -22.75,-10.36 -22.75,-22.8 V 797.602 c 0,-12.43 10.18,-22.5 22.75,-22.5 h 171.76 c 12.56,0 22.74,10.07 22.74,22.5 z m -484.14,370.958 c -3.59,8.29 -11.97,13.92 -21.25,13.92 -9.56,0 -17.95,-5.63 -21.24,-14.21 L 2795.29,805.934 c -4.5,-11.543 1.19,-24.864 12.86,-29.305 11.67,-4.438 25.14,1.18 29.62,12.73 l 35.91,89.989 h 178.36 l 37.41,-90.289 c 4.77,-11.539 17.94,-17.168 29.61,-12.43 11.67,4.742 17.37,18.059 12.57,29.601 l -149.27,362.44 z m -90.67,-243.912 69.72,174.652 72.12,-174.652 h -141.85 z m -202.58,235.332 c 0,12.43 -10.47,22.5 -23.04,22.5 -12.57,0 -22.75,-10.07 -22.75,-22.5 V 957.5 c 0,-88.504 -46.07,-141.496 -122.68,-141.496 -76.91,0 -122.39,52.988 -122.39,141.496 l -0.31,202.48 c 0,12.43 -10.17,22.5 -22.74,22.5 -12.56,0 -22.74,-10.07 -22.74,-22.5 V 957.5 c 0,-113.375 65.84,-186.488 168.18,-186.488 102.34,0 167.87,73.113 168.18,186.488 l 0.28,202.48 z m -442.88,0 c 0,12.43 -10.18,22.5 -22.73,22.5 h -277.72 c -12.57,0 -22.74,-10.07 -22.74,-22.5 0,-12.43 10.17,-22.8 22.74,-22.8 h 116.11 V 797.652 c 0,-12.433 10.18,-22.793 22.75,-22.793 12.56,0 22.75,10.36 22.75,22.793 v 339.528 h 116.09 c 12.57,0 22.75,10.37 22.75,22.8 z m -529.05,-181.164 123.89,167.844 c 7.47,10.06 5.09,23.97 -5.09,31.38 -10.18,7.39 -24.23,5.32 -31.72,-4.74 L 1688.71,1017 1572.3,1173.3 c -7.48,10.06 -21.84,12.13 -32.02,4.74 -10.17,-7.41 -12.27,-21.61 -4.79,-31.68 L 1660.58,978.816 1536.99,810.977 c -7.48,-10.063 -5.38,-23.977 4.79,-31.375 10.17,-7.403 24.54,-5.332 32.02,4.738 L 1689,940.633 1805.7,784.34 c 7.5,-10.07 21.85,-12.141 32.02,-4.738 9.89,7.398 12.27,21.609 4.8,31.671 z m -278.28,181.164 c 0,12.43 -10.47,22.5 -23.05,22.5 h -195.69 c -12.57,0 -22.75,-10.07 -22.75,-22.5 V 797.645 c 0,-12.434 10.18,-22.497 22.75,-22.497 h 191.21 c 12.57,0 22.75,10.063 22.75,22.497 0,12.433 -10.18,22.5 -22.75,22.5 h -168.47 v 134.984 h 146.92 c 12.57,0 23.05,10.066 23.05,22.5 0,12.43 -10.48,22.501 -23.05,22.501 h -146.92 v 137.05 h 172.97 c 12.57,0 23.04,10.36 23.04,22.79 z m -352.21,0 c 0,12.43 -10.17,22.5 -22.74,22.5 H 786.195 c -12.566,0 -22.742,-10.07 -22.742,-22.5 0,-12.43 10.176,-22.8 22.742,-22.8 h 116.11 V 797.652 c 0,-12.433 10.175,-22.793 22.742,-22.793 12.57,0 22.746,10.36 22.746,22.793 V 1137.18 H 1063.9 c 12.57,0 22.74,10.37 22.74,22.8 z m 5370.56,261.27 c -4.2,11.55 -17.36,17.47 -29.34,13.32 -3.29,-1.48 -34.71,-12.43 -71.5,-12.43 -95.47,0 -152.32,60.98 -152.32,163.11 0,102.13 56.85,163.11 152.32,163.11 35.91,0 65.82,-10.37 71.5,-12.44 11.98,-4.44 25.14,1.48 29.34,13.03 4.48,11.84 -1.5,24.57 -13.48,29.01 -6.88,2.36 -43.68,15.39 -87.38,15.39 -120.29,0 -198.09,-81.7 -198.09,-208.1 0,-126.4 77.8,-208.4 198.09,-208.4 44,0 80.5,13.03 87.38,15.39 11.98,4.44 17.96,17.17 13.48,29.01 z M 6020,1766.11 c 0,12.43 -10.16,22.5 -22.73,22.5 -12.57,0 -22.75,-10.07 -22.75,-22.5 v -362.33 c 0,-12.44 10.18,-22.8 22.75,-22.8 12.57,0 22.73,10.36 22.73,22.8 z m -156.2,0 c 0,12.43 -10.17,22.5 -22.74,22.5 h -277.7 c -12.57,0 -22.75,-10.07 -22.75,-22.5 0,-12.43 10.18,-22.79 22.75,-22.79 h 116.1 v -339.53 c 0,-12.44 10.18,-22.8 22.75,-22.8 12.56,0 22.74,10.36 22.74,22.8 v 339.53 h 116.11 c 12.57,0 22.74,10.36 22.74,22.79 z m -507.21,8.59 c -3.59,8.28 -11.96,13.91 -21.25,13.91 -9.57,0 -17.96,-5.63 -21.25,-14.21 l -144.53,-362.33 c -4.49,-11.55 1.21,-24.87 12.87,-29.31 11.68,-4.44 25.14,1.19 29.62,12.73 l 35.91,89.99 h 178.36 l 37.39,-90.28 c 4.79,-11.55 17.97,-17.18 29.63,-12.44 11.68,4.74 17.36,18.06 12.57,29.6 z m -90.68,-243.92 69.73,174.65 72.11,-174.65 z m -215.44,235.33 c 0,9.77 -6.58,18.65 -16.16,21.61 -9.86,2.96 -20.04,-0.89 -25.74,-9.18 l -134.05,-198.62 -134.07,198.62 c -5.68,8.29 -15.86,12.14 -25.73,9.18 -9.58,-2.96 -16.16,-11.84 -16.16,-21.61 l 0.3,-362.33 c 0,-12.44 10.18,-22.5 22.75,-22.5 12.57,0 22.73,10.06 22.73,22.5 v 287.73 l 111.32,-164.58 c 8.98,-13.32 28.73,-13.32 37.72,0 l 111.32,164.58 v -287.73 c 0,-12.44 10.16,-22.5 22.73,-22.5 12.57,0 22.75,10.06 22.75,22.5 z m -491.95,-213.42 c 0,12.43 -10.18,22.49 -22.75,22.49 h -45.48 c -12.57,0 -22.75,-10.06 -22.75,-22.49 0,-12.73 10.18,-22.8 22.75,-22.8 h 22.75 v -100.64 c -25.45,-4.45 -44,-7.11 -89.77,-7.11 -90.98,0 -149.62,63.65 -149.62,161.92 0,97.98 63.14,163.7 157.4,163.7 37.4,0 61.95,-4.44 81.99,-8.59 12.57,-2.66 24.55,5.33 27.23,17.47 2.39,12.13 -5.38,23.97 -17.64,26.64 -22.45,4.74 -49.99,9.77 -91.58,9.77 -119.69,0 -202.89,-85.85 -202.89,-208.99 0.3,-124.03 78.4,-207.21 195.11,-207.21 45.18,0 73.02,3.55 116.41,11.25 11.07,1.77 19.14,11.25 19.14,22.2 l -0.28,142.38 z m -443.46,34.93 c 0,119 -82.29,205.43 -195.7,205.43 -113.41,0 -195.7,-86.44 -195.7,-205.43 0,-120.19 84.09,-210.47 195.7,-210.47 111.62,0 195.7,90.29 195.7,210.47 z m -45.77,0 c 0,-95.91 -62.86,-165.48 -149.93,-165.48 -87.07,0 -150.22,69.56 -150.22,165.48 0,94.42 61.95,160.44 150.22,160.44 88.28,0 149.93,-66.01 149.93,-160.44 z m -459.34,0.88 c 0,147.71 -110.41,200.11 -213.66,200.11 h -84.39 c -12.56,0 -22.74,-10.06 -22.74,-22.49 v -362.33 c 0,-12.44 10.18,-22.5 22.74,-22.5 h 90.08 c 122.4,0 207.97,85.25 207.97,207.21 z m -45.77,0 c 0,-111.89 -81.41,-162.21 -162.2,-162.21 h -67.33 l 0.3,317.03 61.64,0.3 c 50.57,0.29 167.59,-15.1 167.59,-155.12 z m -436.59,177.61 c 0,12.44 -10.18,22.5 -22.75,22.5 -12.57,0 -22.73,-10.06 -22.73,-22.5 v -293.06 l -225.93,306.39 c -5.98,7.99 -16.16,10.95 -25.45,7.99 -9.57,-3.25 -15.85,-11.54 -15.85,-21.31 v -362.03 c 0,-12.43 10.17,-22.8 22.75,-22.8 12.57,0 22.73,10.37 22.73,22.8 v 292.76 l 226.23,-306.09 c 5.68,-7.99 16.16,-11.24 25.43,-8.28 9.28,2.95 15.57,11.84 15.57,21.6 v 362.04 z m -469.21,0 c 0,12.44 -10.48,22.5 -23.04,22.5 -12.57,0 -22.75,-10.06 -22.75,-22.5 v -202.47 c 0,-88.51 -46.07,-141.5 -122.69,-141.5 -76.91,0 -122.38,52.99 -122.38,141.5 l -0.31,202.47 c 0,12.44 -10.17,22.5 -22.74,22.5 -12.57,0 -22.75,-10.06 -22.75,-22.5 v -202.47 c 0,-113.38 65.84,-186.49 168.18,-186.49 102.35,0 167.87,73.11 168.17,186.49 z m -807.04,-224.08 c 46.68,18.65 79.61,65.72 79.61,120.48 0,82.29 -70.93,126.11 -122.4,126.11 h -114.31 c -12.56,0 -22.74,-10.07 -22.74,-22.5 v -362.33 c 0,-12.43 10.18,-22.5 22.74,-22.5 12.57,0 22.74,10.07 22.74,22.5 v 129.66 h 84.4 l 104.73,-142.98 c 7.48,-10.07 21.54,-12.14 31.73,-5.03 10.16,7.4 12.56,21.61 5.09,31.67 l -91.57,124.92 z m 34.12,120.48 c 0,-43.51 -33.22,-83.77 -78.1,-83.77 h -90.38 v 164.88 l 91.56,-0.3 c 26.05,0 76.91,-24.27 76.91,-80.82 z m -351.02,-74.89 c 0,119 -82.29,205.44 -195.7,205.44 -113.41,0 -195.7,-86.44 -195.7,-205.44 0,-120.19 84.09,-210.46 195.7,-210.46 111.62,0 195.7,90.29 195.7,210.46 z m -45.78,0 c 0,-95.91 -62.84,-165.48 -149.92,-165.48 -87.07,0 -150.22,69.57 -150.22,165.48 0,94.43 61.94,160.44 150.22,160.44 88.28,0 149.92,-66.01 149.92,-160.44 z m -440.17,178.5 c 0,12.43 -10.18,22.5 -22.74,22.5 H 836.625 c -12.566,0 -22.742,-10.07 -22.742,-22.5 v -362.33 c 0,-12.44 10.176,-22.5 22.742,-22.5 12.57,0 22.742,10.06 22.742,22.5 v 148.6 H 997.02 c 12.57,0 23.04,10.06 23.04,22.5 0,12.43 -10.47,22.79 -23.04,22.79 H 859.367 v 145.64 h 166.383 c 12.56,0 22.74,10.36 22.74,22.8 v 0" /></g></g></g></g></svg>
