<?xml version="1.0" encoding="UTF-8" standalone="no"?>
<svg
   viewBox="0 0 400 399.99999"
   height="400"
   width="400"
   xml:space="preserve"
   id="svg2"
   version="1.1"
   sodipodi:docname="catma-c.svg"
   inkscape:version="1.1 (c68e22c387, 2021-05-23)"
   xmlns:inkscape="http://www.inkscape.org/namespaces/inkscape"
   xmlns:sodipodi="http://sodipodi.sourceforge.net/DTD/sodipodi-0.dtd"
   xmlns="http://www.w3.org/2000/svg"
   xmlns:svg="http://www.w3.org/2000/svg"
   xmlns:rdf="http://www.w3.org/1999/02/22-rdf-syntax-ns#"
   xmlns:cc="http://creativecommons.org/ns#"
   xmlns:dc="http://purl.org/dc/elements/1.1/"><sodipodi:namedview
     id="namedview10"
     pagecolor="#ffffff"
     bordercolor="#111111"
     borderopacity="1"
     inkscape:pageshadow="0"
     inkscape:pageopacity="0"
     inkscape:pagecheckerboard="1"
     showgrid="false"
     lock-margins="true"
     fit-margin-top="25"
     fit-margin-left="25"
     fit-margin-right="25"
     fit-margin-bottom="25"
     inkscape:zoom="0.96894408"
     inkscape:cx="400.95193"
     inkscape:cy="368.95834"
     inkscape:window-width="1920"
     inkscape:window-height="1017"
     inkscape:window-x="-8"
     inkscape:window-y="-8"
     inkscape:window-maximized="1"
     inkscape:current-layer="svg2" /><metadata
     id="metadata8"><rdf:RDF><cc:Work
         rdf:about=""><dc:format>image/svg+xml</dc:format><dc:type
           rdf:resource="http://purl.org/dc/dcmitype/StillImage" /></cc:Work></rdf:RDF></metadata><defs
     id="defs6"><clipPath
       id="clipPath14"
       clipPathUnits="userSpaceOnUse"><path
         id="path12"
         d="M 0,0 H 644 V 218 H 0 Z" /></clipPath></defs><g
     clip-path="url(#clipPath14)"
     transform="matrix(2.3182098,0,0,-2.3182098,-155.891,478.97571)"
     id="g10"
     style="stroke-width:0.575157"><g
       transform="scale(0.1)"
       id="g16"
       style="stroke-width:0.575157"><path
         id="path18"
         style="fill:#162344;fill-opacity:1;fill-rule:nonzero;stroke:none;stroke-width:0.575157"
         d="m 2077.7438,1979.82 c -14.12,-0.61 -27.65,-6.45 -37.74,-16.96 -92.51,-94.84 -186.18,-188.52 -280.27,-281.78 -22.54,-22.24 -22.68,-58.94 -0.43,-81.48 22.24,-22.55 58.27,-22.36 80.82,-0.12 61.16,58.59 181.06,181.09 181.06,181.09 0,0 -2.6,-178.33 -3.68,-256.66 -0.42,-31.67 24.4,-57.78 56.07,-58.21 31.67,-0.42 58.06,25.1 58.48,56.78 2.22,135.65 4.54,280.85 6.39,399.22 -0.05,22.89 -13.81,44.29 -35.23,53.41 -8.29,3.54 -16.99,5.07 -25.47,4.71 z M 988.1018,1780.87 c -13.965,-0.48 -27.692,-5.9 -38.2,-15.98 -17.355,-16.64 -22.668,-41.5 -13.554,-62.95 50.879,-122.33 100.203,-245.27 149.004,-368.44 11.601,-29.48 45.3,-44.01 74.773,-32.41 29.473,11.61 43.457,44.79 31.852,74.25 -29.844,79.27 -95.422,237.65 -95.422,237.65 0,0 162.988,-72.45 234.59,-104.2 28.957,-12.84 62.718,-0.26 75.55,28.7 12.832,28.96 -0.273,63.24 -29.23,76.07 -123.856,55.35 -256.469,114.55 -364.609,162.74 -7.899,3.37 -16.356,4.86 -24.735,4.57 h -0.023 z m 707.242,-298.78 c -4.422,-0.04 -8.84,-0.11 -13.258,-0.25 -110.012,-3.49 -219.492,-41.19 -311.215,-114.07 -209.644,-166.59 -261.207,-465.149 -119.519,-692.391 141.668,-227.219 432.461,-312.391 674.312,-197.438 70.96,32.098 20.53,138.289 -49.19,103.571 -190.068,-90.313 -416.458,-24.024 -527.806,154.539 -111.316,178.57 -71.18,411.009 93.555,541.909 164.75,130.91 400.261,117.5 549.041,-31.28 54.05,-55.58 136.66,27.01 81.1,81.07 -103.18,103.18 -239.93,155.21 -376.977,154.32 z"
         sodipodi:nodetypes="ccccccccccccccccccccsccccccccccccccccc" /></g></g></svg>
