<?xml version="1.0" encoding="UTF-8" standalone="no"?>
<!-- Created with Inkscape (http://www.inkscape.org/) -->

<svg
   width="126.04297"
   height="28"
   viewBox="0 0 33.348868 7.4083335"
   version="1.1"
   id="svg5"
   inkscape:version="1.4.2 (f4327f4, 2025-05-13)"
   sodipodi:docname="catma-gitlab-combo-logo-blue_wip.svg"
   xmlns:inkscape="http://www.inkscape.org/namespaces/inkscape"
   xmlns:sodipodi="http://sodipodi.sourceforge.net/DTD/sodipodi-0.dtd"
   xmlns="http://www.w3.org/2000/svg"
   xmlns:svg="http://www.w3.org/2000/svg">
  <sodipodi:namedview
     id="namedview7"
     pagecolor="#ffffff"
     bordercolor="#111111"
     borderopacity="1"
     inkscape:pageshadow="0"
     inkscape:pageopacity="0"
     inkscape:pagecheckerboard="1"
     inkscape:document-units="mm"
     showgrid="false"
     lock-margins="true"
     units="px"
     fit-margin-top="0"
     fit-margin-left="0"
     fit-margin-right="0"
     fit-margin-bottom="0"
     inkscape:zoom="10.961101"
     inkscape:cx="63.041111"
     inkscape:cy="27.962519"
     inkscape:window-width="1920"
     inkscape:window-height="1009"
     inkscape:window-x="-8"
     inkscape:window-y="-8"
     inkscape:window-maximized="1"
     inkscape:current-layer="layer1"
     height="28px"
     inkscape:showpageshadow="2"
     inkscape:deskcolor="#d1d1d1"
     showguides="true" />
  <defs
     id="defs2">
    <style
       type="text/css"
       id="style3751"><![CDATA[
    .fil0 {fill:#2B3858;fill-rule:nonzero}
   ]]></style>
  </defs>
  <g
     inkscape:label="Layer 1"
     inkscape:groupmode="layer"
     id="layer1"
     transform="translate(-0.16733191,-0.01397358)">
    <path
       id="pill"
       style="fill:#ffffff;fill-opacity:0.49805447;stroke:none;stroke-width:0.291857;stroke-linecap:round;stroke-linejoin:round"
       d="M 3.7211202,0.01397358 V 0.16383524 A 3.554,3.554375 0 0 0 0.16733191,3.7181403 3.554,3.554375 0 0 0 3.7211202,7.2724454 V 7.422307 H 29.962413 V 7.2724454 A 3.554,3.554375 0 0 0 33.516201,3.7181403 3.554,3.554375 0 0 0 29.962413,0.16383524 V 0.01397358 Z" />
    <path
       d="m 25.711059,1.9313273 h -0.479092 l 0.0022,3.5712064 h 1.940539 V 5.060803 h -1.461448 l -0.0022,-3.1294757 m 3.310343,2.9444322 c -0.120871,0.125267 -0.320859,0.2505339 -0.593369,0.2505339 -0.364812,0 -0.512056,-0.1802084 -0.512056,-0.4153588 0,-0.3538238 0.246138,-0.5230442 0.769182,-0.5230442 0.0989,0 0.257128,0.01099 0.338441,0.02637 v 0.6614971 h -0.0022 M 28.524727,2.7110591 c -0.38679,0 -0.742811,0.1362554 -1.019717,0.3670103 l 0.16922,0.2944869 c 0.195592,-0.1142785 0.435137,-0.2285569 0.780171,-0.2285569 0.393382,0 0.566997,0.2021854 0.566997,0.5406257 v 0.1736154 c -0.07692,-0.015385 -0.235149,-0.02637 -0.331847,-0.02637 -0.839508,0 -1.265855,0.2944873 -1.265855,0.9098335 0,0.5516137 0.33844,0.8285196 0.850497,0.8285196 0.345033,0 0.67688,-0.1582319 0.791159,-0.4153588 l 0.08791,0.3494288 h 0.338441 V 3.6758361 c -0.0022,-0.5779857 -0.252736,-0.964775 -0.966976,-0.964775 m 2.51281,2.4317168 c -0.180209,0 -0.338441,-0.021975 -0.457115,-0.076918 V 3.4154133 c 0.162628,-0.1362555 0.364813,-0.2351504 0.62194,-0.2351504 0.463707,0 0.641718,0.3274523 0.641718,0.8570896 0,0.7516011 -0.287894,1.1054254 -0.806543,1.1054254 m 0.202185,-2.4306178 c -0.428544,0 -0.6593,0.2922894 -0.6593,0.2922894 V 2.5429402 l -0.0022,-0.6109514 H 30.11012 l 0.0022,3.4832995 c 0.23515,0.098895 0.556009,0.1516389 0.905438,0.1516389 0.894449,0 1.325191,-0.5713927 1.325191,-1.5581447 -0.0022,-0.7801711 -0.399974,-1.2966224 -1.103227,-1.2966224 M 20.49468,2.3187762 c 0.424149,0 0.698858,0.1406505 0.876869,0.2834989 l 0.20658,-0.3582199 C 21.299026,1.9979168 20.921027,1.8660569 20.516657,1.8660569 c -1.019717,0 -1.733958,0.6219393 -1.733958,1.8768062 0,1.3142039 0.771381,1.8262601 1.652644,1.8262601 0.441731,0 0.817532,-0.1032904 1.06367,-0.2065809 L 21.488023,3.9582345 V 3.5165037 h -1.307609 v 0.4417308 h 0.835113 l 0.01099,1.0658675 c -0.109884,0.054941 -0.298883,0.098895 -0.556009,0.098895 -0.707649,0 -1.182344,-0.4461263 -1.182344,-1.3845293 -0.0022,-0.9559841 0.487881,-1.4196914 1.206518,-1.4196914 m 3.374076,-0.3878884 h -0.468103 l 0.0022,0.5999629 v 2.0723984 c 0,0.5779857 0.250534,0.964775 0.964775,0.964775 0.09889,0 0.195592,-0.00879 0.287894,-0.02637 V 5.1218979 c -0.06813,0.01099 -0.14065,0.015385 -0.217569,0.015385 -0.393382,0 -0.566997,-0.2021854 -0.566997,-0.5406257 V 3.1681739 h 0.784566 V 2.776989 h -0.784566 l -0.0022,-0.8461012 m -1.658579,3.5716459 h 0.468103 V 2.777429 h -0.468103 v 2.7251047 m 0,-3.1009056 h 0.468103 V 1.9335253 h -0.468103 v 0.4681028"
       id="gitlab"
       style="fill:#162344;fill-opacity:1;stroke-width:0.0219766" />
    <path
       class="fil0"
       d="m 4.4041005,1.3388162 c -0.038526,0.00193 -0.073199,0.017337 -0.1001666,0.046231 -0.2465638,0.254269 -0.4989065,0.5046854 -0.7493229,0.7531755 -0.059715,0.059715 -0.061641,0.157955 -0.00193,0.2176696 0.059715,0.059715 0.1560287,0.059715 0.2157434,0 0.1637338,-0.1560286 0.4834963,-0.4854225 0.4834963,-0.4854225 0,0 -0.00771,0.4777174 -0.00963,0.6857557 -0.00193,0.084756 0.065493,0.1541024 0.1502498,0.1560286 0.084756,0.00193 0.1560287,-0.06742 0.1560287,-0.1521761 0.00578,-0.3621406 0.011558,-0.7512492 0.017336,-1.0671591 0,-0.061641 -0.036599,-0.1194294 -0.094388,-0.1425447 -0.023115,-0.00963 -0.046231,-0.013484 -0.06742,-0.013484 v 0 z M 1.4896389,1.8704695 c -0.036599,0.00193 -0.073199,0.01541 -0.1020929,0.042378 -0.046231,0.044304 -0.059715,0.1117243 -0.036599,0.1675864 0.1367659,0.3274676 0.2677529,0.6568615 0.39874,0.9862554 0.03082,0.078977 0.1213556,0.117503 0.2003331,0.086683 0.078977,-0.03082 0.1155768,-0.1194294 0.084756,-0.1984069 C 1.9557986,2.7430743 1.7785809,2.3192927 1.7785809,2.3192927 c 0,0 0.4353392,0.1945543 0.6279672,0.2793106 0.077051,0.034673 0.1675864,0 0.2022594,-0.077051 0.034673,-0.077051 0,-0.1695126 -0.078977,-0.2041857 C 2.1985099,2.1690429 1.8440744,2.0110879 1.5551324,1.8820272 1.5339433,1.8723958 1.5108279,1.8685432 1.4896389,1.8704695 Z m 1.8916069,0.7994062 c -0.011558,0 -0.023115,0 -0.034673,0 C 3.0518519,2.6795071 2.7590574,2.7796736 2.5144198,2.9742279 1.9538723,3.4191986 1.8151802,4.2186048 2.1946573,4.8273093 2.5741345,5.4360138 3.3523516,5.6633148 3.9995817,5.35511 4.1902834,5.2684274 4.0554438,4.9852642 3.8685947,5.0777257 3.3600567,5.3185107 2.7552048,5.1412929 2.4566314,4.6635755 2.158058,4.185858 2.2659297,3.5636696 2.7070478,3.2130866 3.1481659,2.8625037 3.7780595,2.899103 4.1767995,3.2959167 4.3212705,3.4442402 4.5427927,3.222718 4.3944691,3.078247 4.1190111,2.802789 3.7530179,2.6621706 3.3850984,2.6660231 v 0 0 z m 5.5207185,0.028894 c -0.01541,0 -0.032747,0.00193 -0.048157,0.00578 -0.063567,0.019263 -0.1078717,0.080904 -0.1078717,0.1463973 l 0.00193,2.4540807 c 0,0.084756 0.06742,0.1521761 0.1521761,0.1521761 0.084756,0 0.1521761,-0.06742 0.1521761,-0.1521761 V 3.3556314 l 0.7454704,1.1153161 c 0.059715,0.090535 0.192628,0.090535 0.2523428,0 l 0.745471,-1.1153161 v 1.9493953 c 0,0.084756 0.06742,0.1521761 0.152176,0.1521761 0.08476,0 0.152176,-0.06742 0.152176,-0.1521761 l 0.0019,-2.4540807 c 0,-0.065494 -0.0443,-0.1271345 -0.107872,-0.1463973 -0.06549,-0.019263 -0.134839,0.00578 -0.171439,0.061641 L 9.9228927,4.1107331 9.0252462,2.7661897 C 8.996352,2.7238115 8.9520476,2.6987699 8.9019643,2.6968436 Z m -3.419147,0 c -0.063567,0 -0.1194294,0.038526 -0.1425447,0.096314 L 4.3713537,5.2491646 c -0.03082,0.078977 0.00771,0.1675864 0.086683,0.1984068 0.078978,0.03082 0.1675864,-0.00771 0.1984069,-0.086683 L 4.8972286,4.752184 h 1.1942936 l 0.2504164,0.6106307 c 0.032747,0.078978 0.1194293,0.1155768 0.1984068,0.084756 0.078977,-0.032747 0.1155768,-0.1213556 0.084756,-0.2003331 L 5.6234357,2.7931576 C 5.5983941,2.7372955 5.542532,2.6987699 5.480891,2.6987699 v 0 0 z m 0.8687523,0 c -0.084756,0 -0.1521761,0.06742 -0.1521761,0.1521761 0,0.084756 0.06742,0.1541024 0.1521761,0.1541024 h 0.7782171 v 2.2999783 c 0,0.084756 0.06742,0.1541024 0.1521761,0.1541024 0.084756,0 0.1521761,-0.069346 0.1521761,-0.1541024 V 3.0050484 h 0.7782172 c 0.084756,0 0.1521761,-0.069346 0.1521761,-0.1541024 0,-0.084756 -0.06742,-0.1521761 -0.1521761,-0.1521761 z m 6.1968424,0 c -0.06357,0 -0.119429,0.038526 -0.142544,0.096314 l -0.968919,2.4540807 c -0.03082,0.078977 0.0077,0.1675864 0.08668,0.1984068 0.07898,0.03082 0.167587,-0.00771 0.198407,-0.086683 l 0.240785,-0.6087044 h 1.194294 l 0.192628,0.4719386 v 0 c 0.02697,0.065494 0.05779,0.1290607 0.09439,0.1887754 0.0809,0.1348396 0.184922,0.2561952 0.308204,0.3582881 0.123282,0.1020928 0.263901,0.1849229 0.421856,0.2427113 0.313983,0.1136505 0.64723,0.1117242 0.943877,0.00771 v 0 0 c 0.194554,-0.069346 0.402592,-0.2350062 0.606778,-0.3679195 0.105945,-0.063567 0.221522,-0.109798 0.344804,-0.1348396 0.121356,-0.025042 0.250417,-0.03082 0.379477,-0.011558 0.260048,0.036599 0.487349,0.1598813 0.654936,0.3409516 0.140618,0.1560287 0.371772,-0.059715 0.225374,-0.2099645 -0.215743,-0.2311536 -0.508538,-0.3891086 -0.837931,-0.4353393 -0.165661,-0.023115 -0.329394,-0.017336 -0.485423,0.01541 -0.171439,0.036599 -0.377551,0.1232819 -0.539358,0.2369325 l -0.0019,0.00193 -0.0019,0.00193 C 15.302993,5.5843373 15.172006,5.678725 15.017903,5.7307346 v 0 c -0.23308,0.080904 -0.493127,0.08283 -0.737765,-0.00578 -0.123282,-0.044304 -0.23308,-0.109798 -0.329394,-0.1887755 -0.09631,-0.078977 -0.177218,-0.1752915 -0.240785,-0.2812369 -0.02697,-0.046231 -0.05394,-0.094388 -0.07512,-0.1425447 v 0 L 12.689031,2.7950839 c -0.02312,-0.055862 -0.0809,-0.094388 -0.142545,-0.094388 v 0 0 z M 5.4847436,3.2612436 5.9682399,4.4439796 H 5.0185838 l 0.4680861,-1.182736 v 0 z m 7.0655954,0 0.483496,1.182736 h -0.949656 l 0.468086,-1.182736 z"
       id="catma"
       inkscape:connector-curvature="0"
       style="clip-rule:evenodd;fill:#162344;fill-opacity:1;fill-rule:nonzero;stroke-width:0.00192628;image-rendering:optimizeQuality;shape-rendering:geometricPrecision;text-rendering:geometricPrecision" />
  </g>
</svg>
