<?xml version="1.0" encoding="UTF-8" standalone="no"?>
<!-- Created with Inkscape (http://www.inkscape.org/) -->

<svg
   width="117.17698"
   height="28"
   viewBox="0 0 31.003075 7.4083335"
   version="1.1"
   id="svg5"
   inkscape:version="1.1 (c68e22c387, 2021-05-23)"
   sodipodi:docname="catma-gitlab-combo-logo-blue.svg"
   xmlns:inkscape="http://www.inkscape.org/namespaces/inkscape"
   xmlns:sodipodi="http://sodipodi.sourceforge.net/DTD/sodipodi-0.dtd"
   xmlns="http://www.w3.org/2000/svg"
   xmlns:svg="http://www.w3.org/2000/svg">
  <sodipodi:namedview
     id="namedview7"
     pagecolor="#ffffff"
     bordercolor="#111111"
     borderopacity="1"
     inkscape:pageshadow="0"
     inkscape:pageopacity="0"
     inkscape:pagecheckerboard="1"
     inkscape:document-units="mm"
     showgrid="false"
     lock-margins="true"
     units="px"
     fit-margin-top="0"
     fit-margin-left="0"
     fit-margin-right="0"
     fit-margin-bottom="0"
     inkscape:zoom="16"
     inkscape:cx="33.625"
     inkscape:cy="21.71875"
     inkscape:window-width="1920"
     inkscape:window-height="1017"
     inkscape:window-x="-8"
     inkscape:window-y="-8"
     inkscape:window-maximized="1"
     inkscape:current-layer="layer1"
     height="28px" />
  <defs
     id="defs2">
    <style
       type="text/css"
       id="style3751"><![CDATA[
    .fil0 {fill:#2B3858;fill-rule:nonzero}
   ]]></style>
  </defs>
  <g
     inkscape:label="Layer 1"
     inkscape:groupmode="layer"
     id="layer1"
     transform="translate(-0.01695355,-0.01397358)">
    <g
       style="clip-rule:evenodd;fill:#162344;fill-rule:evenodd;image-rendering:optimizeQuality;shape-rendering:geometricPrecision;text-rendering:geometricPrecision;fill-opacity:1"
       id="g21"
       transform="matrix(0.00192628,0,0,0.00192628,-0.66989873,0.71319944)">
      <g
         id="Layer_x0020_1"
         transform="rotate(-90,1560.5489,1514.2308)"
         inkscape:label="Layer 1"
         inkscape:groupmode="layer"
         style="fill:#162344;fill-opacity:1">
        <metadata
           id="CorelCorpID_0Corel-Layer" />
        <path
           class="fil0"
           d="m 2750,1901 c -1,-20 -9,-38 -24,-52 -132,-128 -262,-259 -391,-389 -31,-31 -82,-32 -113,-1 -31,31 -31,81 0,112 81,85 252,251 252,251 0,0 -248,-4 -356,-5 -44,-1 -80,34 -81,78 -1,44 35,81 79,81 188,3 390,6 554,9 32,0 62,-19 74,-49 5,-12 7,-24 7,-35 v 0 z M 2474,388 c -1,-19 -8,-38 -22,-53 -23,-24 -58,-31 -87,-19 -170,71 -341,139 -512,207 -41,16 -61,63 -45,104 16,41 62,60 103,44 110,-41 330,-133 330,-133 0,0 -101,226 -145,326 -18,40 0,87 40,105 40,18 88,0 106,-41 77,-172 159,-356 226,-506 5,-11 7,-23 6,-34 z m -415,982 c 0,-6 0,-12 0,-18 -5,-153 -57,-305 -158,-432 C 1670,629 1255,557 939,754 623,951 505,1355 665,1691 c 45,99 192,29 144,-68 -125,-264 -33,-578 215,-733 248,-155 571,-99 753,130 182,229 163,556 -43,763 -77,75 38,190 113,113 143,-143 216,-333 214,-524 v 0 0 z m -15,2866 c 0,-8 -1,-17 -3,-25 -10,-33 -42,-56 -76,-56 l -1274,1 c -44,0 -79,35 -79,79 0,44 35,79 79,79 h 1012 l -579,387 c -47,31 -47,100 0,131 l 579,387 H 691 c -44,0 -79,35 -79,79 0,44 35,79 79,79 l 1274,1 c 34,0 66,-23 76,-56 10,-34 -3,-70 -32,-89 l -698,-467 698,-466 c 22,-15 35,-38 36,-64 z m 0,-1775 c 0,-33 -20,-62 -50,-74 L 720,1884 c -41,-16 -87,4 -103,45 -16,41 4,87 45,103 l 316,125 v 620 l -317,130 c -41,17 -60,62 -44,103 17,41 63,60 104,44 l 1274,-520 c 29,-13 49,-42 49,-74 v 0 0 z m 0,451 c 0,-44 -35,-79 -79,-79 -44,0 -80,35 -80,79 v 404 H 691 c -44,0 -80,35 -80,79 0,44 36,79 80,79 h 1194 v 404 c 0,44 36,79 80,79 44,0 79,-35 79,-79 z m 0,3217 c 0,-33 -20,-62 -50,-74 L 720,5552 c -41,-16 -87,4 -103,45 -16,41 4,87 45,103 l 316,125 v 620 l -245,100 v 0 c -34,14 -67,30 -98,49 -70,42 -133,96 -186,160 -53,64 -96,137 -126,219 -59,163 -58,336 -4,490 v 0 0 c 36,101 122,209 191,315 33,55 57,115 70,179 13,63 16,130 6,197 -19,135 -83,253 -177,340 -81,73 31,193 109,117 120,-112 202,-264 226,-435 12,-86 9,-171 -8,-252 -19,-89 -64,-196 -123,-280 l -1,-1 -1,-1 C 546,7559 497,7491 470,7411 v 0 c -42,-121 -43,-256 3,-383 23,-64 57,-121 98,-171 41,-50 91,-92 146,-125 24,-14 49,-28 74,-39 v 0 l 1203,-491 c 29,-12 49,-42 49,-74 v 0 0 z m -292,-3667 -614,251 v -493 l 614,243 v 0 z m 0,3668 -614,251 v -493 l 614,243 z"
           id="path3756"
           inkscape:connector-curvature="0"
           style="fill:#162344;fill-rule:nonzero;fill-opacity:1" />
      </g>
    </g>
    <path
       d="m 24.38814,1.9313273 h -0.479092 l 0.0022,3.5712064 h 1.940539 V 5.060803 h -1.461448 l -0.0022,-3.1294757 m 3.310343,2.9444322 c -0.120871,0.125267 -0.320859,0.2505339 -0.593369,0.2505339 -0.364812,0 -0.512056,-0.1802084 -0.512056,-0.4153588 0,-0.3538238 0.246138,-0.5230442 0.769182,-0.5230442 0.0989,0 0.257128,0.01099 0.338441,0.02637 v 0.6614971 h -0.0022 M 27.201808,2.7110591 c -0.38679,0 -0.742811,0.1362554 -1.019717,0.3670103 l 0.16922,0.2944869 c 0.195592,-0.1142785 0.435137,-0.2285569 0.780171,-0.2285569 0.393382,0 0.566997,0.2021854 0.566997,0.5406257 v 0.1736154 c -0.07692,-0.015385 -0.235149,-0.02637 -0.331847,-0.02637 -0.839508,0 -1.265855,0.2944873 -1.265855,0.9098335 0,0.5516137 0.33844,0.8285196 0.850497,0.8285196 0.345033,0 0.67688,-0.1582319 0.791159,-0.4153588 l 0.08791,0.3494288 h 0.338441 V 3.6758361 c -0.0022,-0.5779857 -0.252736,-0.964775 -0.966976,-0.964775 m 2.51281,2.4317168 c -0.180209,0 -0.338441,-0.021975 -0.457115,-0.076918 V 3.4154133 c 0.162628,-0.1362555 0.364813,-0.2351504 0.62194,-0.2351504 0.463707,0 0.641718,0.3274523 0.641718,0.8570896 0,0.7516011 -0.287894,1.1054254 -0.806543,1.1054254 m 0.202185,-2.4306178 c -0.428544,0 -0.6593,0.2922894 -0.6593,0.2922894 V 2.5429402 l -0.0022,-0.6109514 h -0.468102 l 0.0022,3.4832995 c 0.23515,0.098895 0.556009,0.1516389 0.905438,0.1516389 0.894449,0 1.325191,-0.5713927 1.325191,-1.5581447 C 31.01783,3.2286114 30.620056,2.7121601 29.916803,2.7121601 M 19.171761,2.3187762 c 0.424149,0 0.698858,0.1406505 0.876869,0.2834989 L 20.25521,2.2440552 C 19.976107,1.9979168 19.598108,1.8660569 19.193738,1.8660569 c -1.019717,0 -1.733958,0.6219393 -1.733958,1.8768062 0,1.3142039 0.771381,1.8262601 1.652644,1.8262601 0.441731,0 0.817532,-0.1032904 1.06367,-0.2065809 L 20.165104,3.9582345 V 3.5165037 h -1.307609 v 0.4417308 h 0.835113 l 0.01099,1.0658675 c -0.109884,0.054941 -0.298883,0.098895 -0.556009,0.098895 -0.707649,0 -1.182344,-0.4461263 -1.182344,-1.3845293 -0.0022,-0.9559841 0.487881,-1.4196914 1.206518,-1.4196914 m 3.374076,-0.3878884 h -0.468103 l 0.0022,0.5999629 v 2.0723984 c 0,0.5779857 0.250534,0.964775 0.964775,0.964775 0.09889,0 0.195592,-0.00879 0.287894,-0.02637 V 5.1218979 c -0.06813,0.01099 -0.14065,0.015385 -0.217569,0.015385 -0.393382,0 -0.566997,-0.2021854 -0.566997,-0.5406257 V 3.1681739 h 0.784566 V 2.776989 h -0.784566 l -0.0022,-0.8461012 M 20.88726,5.5025337 h 0.468103 V 2.777429 H 20.88726 v 2.7251047 m 0,-3.1009056 h 0.468103 V 1.9335253 H 20.88726 v 0.4681028"
       id="path171"
       style="fill:#162344;stroke-width:0.0219766;fill-opacity:1" />
  </g>
</svg>
