<?xml version="1.0" encoding="UTF-8" standalone="no"?>
<!-- Creator: CorelDRAW X6 -->

<svg
   xmlns:dc="http://purl.org/dc/elements/1.1/"
   xmlns:cc="http://creativecommons.org/ns#"
   xmlns:rdf="http://www.w3.org/1999/02/22-rdf-syntax-ns#"
   xmlns:svg="http://www.w3.org/2000/svg"
   xmlns="http://www.w3.org/2000/svg"
   xmlns:sodipodi="http://sodipodi.sourceforge.net/DTD/sodipodi-0.dtd"
   xmlns:inkscape="http://www.inkscape.org/namespaces/inkscape"
   xml:space="preserve"
   width="8.9444399in"
   height="3.0277801in"
   version="1.1"
   style="clip-rule:evenodd;fill-rule:evenodd;image-rendering:optimizeQuality;shape-rendering:geometricPrecision;text-rendering:geometricPrecision"
   viewBox="0 0 8945.0896 3027.6311"
   id="svg3759"
   sodipodi:docname="catma-tailright-final-cmyk.svg"
   inkscape:version="0.92.2 5c3e80d, 2017-08-06"><metadata
     id="metadata3763"><rdf:RDF><cc:Work
         rdf:about=""><dc:format>image/svg+xml</dc:format><dc:type
           rdf:resource="http://purl.org/dc/dcmitype/StillImage" /><dc:title></dc:title></cc:Work></rdf:RDF></metadata><sodipodi:namedview
     pagecolor="#ffffff"
     bordercolor="#666666"
     borderopacity="1"
     objecttolerance="10"
     gridtolerance="10"
     guidetolerance="10"
     inkscape:pageopacity="0"
     inkscape:pageshadow="2"
     inkscape:window-width="1201"
     inkscape:window-height="854"
     id="namedview3761"
     showgrid="false"
     inkscape:zoom="0.46118036"
     inkscape:cx="350.28726"
     inkscape:cy="558.26642"
     inkscape:window-x="87"
     inkscape:window-y="49"
     inkscape:window-maximized="0"
     inkscape:current-layer="svg3759" /><defs
     id="defs3753"><style
       type="text/css"
       id="style3751"><![CDATA[
    .fil0 {fill:#2B3858;fill-rule:nonzero}
   ]]></style></defs><g
     id="Layer_x0020_1"
     transform="rotate(-90,1560.5489,1514.2308)"><metadata
       id="CorelCorpID_0Corel-Layer" /><path
       class="fil0"
       d="m 2750,1901 c -1,-20 -9,-38 -24,-52 -132,-128 -262,-259 -391,-389 -31,-31 -82,-32 -113,-1 -31,31 -31,81 0,112 81,85 252,251 252,251 0,0 -248,-4 -356,-5 -44,-1 -80,34 -81,78 -1,44 35,81 79,81 188,3 390,6 554,9 32,0 62,-19 74,-49 5,-12 7,-24 7,-35 v 0 z M 2474,388 c -1,-19 -8,-38 -22,-53 -23,-24 -58,-31 -87,-19 -170,71 -341,139 -512,207 -41,16 -61,63 -45,104 16,41 62,60 103,44 110,-41 330,-133 330,-133 0,0 -101,226 -145,326 -18,40 0,87 40,105 40,18 88,0 106,-41 77,-172 159,-356 226,-506 5,-11 7,-23 6,-34 z m -415,982 c 0,-6 0,-12 0,-18 -5,-153 -57,-305 -158,-432 C 1670,629 1255,557 939,754 623,951 505,1355 665,1691 c 45,99 192,29 144,-68 -125,-264 -33,-578 215,-733 248,-155 571,-99 753,130 182,229 163,556 -43,763 -77,75 38,190 113,113 143,-143 216,-333 214,-524 v 0 0 z m -15,2866 c 0,-8 -1,-17 -3,-25 -10,-33 -42,-56 -76,-56 l -1274,1 c -44,0 -79,35 -79,79 0,44 35,79 79,79 h 1012 l -579,387 c -47,31 -47,100 0,131 l 579,387 H 691 c -44,0 -79,35 -79,79 0,44 35,79 79,79 l 1274,1 c 34,0 66,-23 76,-56 10,-34 -3,-70 -32,-89 l -698,-467 698,-466 c 22,-15 35,-38 36,-64 z m 0,-1775 c 0,-33 -20,-62 -50,-74 L 720,1884 c -41,-16 -87,4 -103,45 -16,41 4,87 45,103 l 316,125 v 620 l -317,130 c -41,17 -60,62 -44,103 17,41 63,60 104,44 l 1274,-520 c 29,-13 49,-42 49,-74 v 0 0 z m 0,451 c 0,-44 -35,-79 -79,-79 -44,0 -80,35 -80,79 v 404 H 691 c -44,0 -80,35 -80,79 0,44 36,79 80,79 h 1194 v 404 c 0,44 36,79 80,79 44,0 79,-35 79,-79 z m 0,3217 c 0,-33 -20,-62 -50,-74 L 720,5552 c -41,-16 -87,4 -103,45 -16,41 4,87 45,103 l 316,125 v 620 l -245,100 v 0 c -34,14 -67,30 -98,49 -70,42 -133,96 -186,160 -53,64 -96,137 -126,219 -59,163 -58,336 -4,490 v 0 0 c 36,101 122,209 191,315 33,55 57,115 70,179 13,63 16,130 6,197 -19,135 -83,253 -177,340 -81,73 31,193 109,117 120,-112 202,-264 226,-435 12,-86 9,-171 -8,-252 -19,-89 -64,-196 -123,-280 l -1,-1 -1,-1 C 546,7559 497,7491 470,7411 v 0 c -42,-121 -43,-256 3,-383 23,-64 57,-121 98,-171 41,-50 91,-92 146,-125 24,-14 49,-28 74,-39 v 0 l 1203,-491 c 29,-12 49,-42 49,-74 v 0 0 z m -292,-3667 -614,251 v -493 l 614,243 v 0 z m 0,3668 -614,251 v -493 l 614,243 z"
       id="path3756"
       inkscape:connector-curvature="0"
       style="fill:#2b3858;fill-rule:nonzero" /></g></svg>